<?xml version="1.0" encoding="UTF-8" standalone="no"?>
<!-- Generator: Adobe Illustrator 19.0.0, SVG Export Plug-In . SVG Version: 6.00 Build 0)  -->

<svg
   version="1.1"
   id="Layer_1"
   x="0px"
   y="0px"
   viewBox="0 0 238.00001 304.00001"
   xml:space="preserve"
   sodipodi:docname="pdf-svgrepo-com.svg"
   width="238"
   height="304"
   inkscape:version="1.1.1 (3bf5ae0d25, 2021-09-20)"
   xmlns:inkscape="http://www.inkscape.org/namespaces/inkscape"
   xmlns:sodipodi="http://sodipodi.sourceforge.net/DTD/sodipodi-0.dtd"
   xmlns="http://www.w3.org/2000/svg"
   xmlns:svg="http://www.w3.org/2000/svg"><defs
   id="defs53">
	
	
	
	
	

	

	

		
	
			
			
			
			
			
			
			
			
		</defs><sodipodi:namedview
   id="namedview51"
   pagecolor="#ffffff"
   bordercolor="#666666"
   borderopacity="1.0"
   inkscape:pageshadow="2"
   inkscape:pageopacity="0.0"
   inkscape:pagecheckerboard="0"
   showgrid="false"
   inkscape:zoom="1.4142136"
   inkscape:cx="305.47013"
   inkscape:cy="88.741901"
   inkscape:window-width="2251"
   inkscape:window-height="1276"
   inkscape:window-x="906"
   inkscape:window-y="115"
   inkscape:window-maximized="1"
   inkscape:current-layer="Layer_1" />

<g
   id="g20">
</g>
<g
   id="g22">
</g>
<g
   id="g24">
</g>
<g
   id="g26">
</g>
<g
   id="g28">
</g>
<g
   id="g30">
</g>
<g
   id="g32">
</g>
<g
   id="g34">
</g>
<g
   id="g36">
</g>
<g
   id="g38">
</g>
<g
   id="g40">
</g>
<g
   id="g42">
</g>
<g
   id="g44">
</g>
<g
   id="g46">
</g>
<g
   id="g48">
</g>
<g
   id="g1312"
   transform="matrix(0.22228281,0,0,0.22228281,157.00571,178.97949)">
</g><g
   id="g1314"
   transform="matrix(0.22228281,0,0,0.22228281,157.00571,178.97949)">
</g><g
   id="g1316"
   transform="matrix(0.22228281,0,0,0.22228281,157.00571,178.97949)">
</g><g
   id="g1318"
   transform="matrix(0.22228281,0,0,0.22228281,157.00571,178.97949)">
</g><g
   id="g1320"
   transform="matrix(0.22228281,0,0,0.22228281,157.00571,178.97949)">
</g><g
   id="g1322"
   transform="matrix(0.22228281,0,0,0.22228281,157.00571,178.97949)">
</g><g
   id="g1324"
   transform="matrix(0.22228281,0,0,0.22228281,157.00571,178.97949)">
</g><g
   id="g1326"
   transform="matrix(0.22228281,0,0,0.22228281,157.00571,178.97949)">
</g><g
   id="g1328"
   transform="matrix(0.22228281,0,0,0.22228281,157.00571,178.97949)">
</g><g
   id="g1330"
   transform="matrix(0.22228281,0,0,0.22228281,157.00571,178.97949)">
</g><g
   id="g1332"
   transform="matrix(0.22228281,0,0,0.22228281,157.00571,178.97949)">
</g><g
   id="g1334"
   transform="matrix(0.22228281,0,0,0.22228281,157.00571,178.97949)">
</g><g
   id="g1336"
   transform="matrix(0.22228281,0,0,0.22228281,157.00571,178.97949)">
</g><g
   id="g1338"
   transform="matrix(0.22228281,0,0,0.22228281,157.00571,178.97949)">
</g><g
   id="g1340"
   transform="matrix(0.22228281,0,0,0.22228281,157.00571,178.97949)">
</g><g
   id="g2021"
   transform="matrix(1.000116,0,0,0.99905258,-32.845811,0)"><polygon
     style="fill:#e8e8e8"
     points="270.346,303.188 270.346,50.525 219.821,0 32.842,0 32.842,303.188 "
     id="polygon2" /><path
     style="fill:#fb3449"
     d="m 230.013,149.935 c -3.643,-6.493 -16.231,-8.533 -22.006,-9.451 -4.552,-0.724 -9.199,-0.94 -13.803,-0.936 -3.615,-0.024 -7.177,0.154 -10.693,0.354 -1.296,0.087 -2.579,0.199 -3.861,0.31 -1.314,-1.36 -2.584,-2.765 -3.813,-4.202 -7.82,-9.257 -14.134,-19.755 -19.279,-30.664 1.366,-5.271 2.459,-10.772 3.119,-16.485 1.205,-10.427 1.619,-22.31 -2.288,-32.251 -1.349,-3.431 -4.946,-7.608 -9.096,-5.528 -4.771,2.392 -6.113,9.169 -6.502,13.973 -0.313,3.883 -0.094,7.776 0.558,11.594 0.664,3.844 1.733,7.494 2.897,11.139 1.086,3.342 2.283,6.658 3.588,9.943 -0.828,2.586 -1.707,5.127 -2.63,7.603 -2.152,5.643 -4.479,11.004 -6.717,16.161 -1.18,2.557 -2.335,5.06 -3.465,7.507 -3.576,7.855 -7.458,15.566 -11.815,23.02 -10.163,3.585 -19.283,7.741 -26.857,12.625 -4.063,2.625 -7.652,5.476 -10.641,8.603 -2.822,2.952 -5.69,6.783 -5.941,11.024 -0.141,2.394 0.807,4.717 2.768,6.137 2.697,2.015 6.271,1.881 9.4,1.225 10.25,-2.15 18.121,-10.961 24.824,-18.387 4.617,-5.115 9.872,-11.61 15.369,-19.465 0.012,-0.018 0.024,-0.036 0.037,-0.054 9.428,-2.923 19.689,-5.391 30.579,-7.205 4.975,-0.825 10.082,-1.5 15.291,-1.974 3.663,3.431 7.621,6.555 11.939,9.164 3.363,2.069 6.94,3.816 10.684,5.119 3.786,1.237 7.595,2.247 11.528,2.886 1.986,0.284 4.017,0.413 6.092,0.335 4.631,-0.175 11.278,-1.951 11.714,-7.57 0.134,-1.72 -0.237,-3.228 -0.98,-4.55 z m -110.869,10.31 c -2.169,3.36 -4.261,6.382 -6.232,9.041 -4.827,6.568 -10.34,14.369 -18.322,17.286 -1.516,0.554 -3.512,1.126 -5.616,1.002 -1.874,-0.11 -3.722,-0.937 -3.637,-3.065 0.042,-1.114 0.587,-2.535 1.423,-3.931 0.915,-1.531 2.048,-2.935 3.275,-4.226 2.629,-2.762 5.953,-5.439 9.777,-7.918 5.865,-3.805 12.867,-7.23 20.672,-10.286 -0.449,0.71 -0.897,1.416 -1.34,2.097 z m 27.222,-84.26 c -0.602,-3.514 -0.693,-7.077 -0.323,-10.503 0.184,-1.713 0.533,-3.385 1.038,-4.952 0.428,-1.33 1.352,-4.576 2.826,-4.993 2.43,-0.688 3.177,4.529 3.452,6.005 1.566,8.396 0.186,17.733 -1.693,25.969 -0.299,1.31 -0.632,2.599 -0.973,3.883 -0.582,-1.601 -1.137,-3.207 -1.648,-4.821 -1.1,-3.525 -2.106,-7.091 -2.679,-10.588 z m 16.683,66.28 c -9.13,1.48 -17.815,3.419 -25.979,5.708 0.983,-0.275 5.475,-8.788 6.477,-10.555 4.721,-8.315 8.583,-17.042 11.358,-26.197 4.9,9.691 10.847,18.962 18.153,27.214 0.673,0.749 1.357,1.489 2.053,2.22 -4.094,0.441 -8.123,0.978 -12.062,1.61 z m 61.744,11.694 c -0.334,1.805 -4.189,2.837 -5.988,3.121 -5.316,0.836 -10.94,0.167 -16.028,-1.542 -3.491,-1.172 -6.858,-2.768 -10.057,-4.688 -3.18,-1.921 -6.155,-4.181 -8.936,-6.673 3.429,-0.206 6.9,-0.341 10.388,-0.275 3.488,0.035 7.003,0.211 10.475,0.664 6.511,0.726 13.807,2.961 18.932,7.186 1.009,0.833 1.331,1.569 1.214,2.207 z"
     id="path4" /><polygon
     style="fill:#fb3449"
     points="227.64,25.263 32.842,25.263 32.842,0 219.821,0 "
     id="polygon6" /><g
     id="g14"
     transform="translate(-40)">
		<path
   style="fill:#a4a9ad"
   d="m 126.841,241.152 c 0,5.361 -1.58,9.501 -4.742,12.421 -3.162,2.921 -7.652,4.381 -13.472,4.381 h -3.643 v 15.917 H 92.022 v -47.979 h 16.606 c 6.06,0 10.611,1.324 13.652,3.971 3.041,2.647 4.561,6.41 4.561,11.289 z m -21.856,6.235 h 2.363 c 1.947,0 3.495,-0.546 4.644,-1.641 1.149,-1.094 1.723,-2.604 1.723,-4.529 0,-3.238 -1.794,-4.857 -5.382,-4.857 h -3.348 c 0,0 0,11.027 0,11.027 z"
   id="path8" />
		<path
   style="fill:#a4a9ad"
   d="m 175.215,248.864 c 0,8.007 -2.205,14.177 -6.613,18.509 -4.408,4.332 -10.606,6.498 -18.591,6.498 h -15.523 v -47.979 h 16.606 c 7.701,0 13.646,1.969 17.836,5.907 4.189,3.938 6.285,9.627 6.285,17.065 z m -13.455,0.46 c 0,-4.398 -0.87,-7.657 -2.609,-9.78 -1.739,-2.122 -4.381,-3.183 -7.926,-3.183 h -3.773 v 26.877 h 2.888 c 3.939,0 6.826,-1.143 8.664,-3.43 1.837,-2.285 2.756,-5.78 2.756,-10.484 z"
   id="path10" />
		<path
   style="fill:#a4a9ad"
   d="m 196.579,273.871 h -12.766 v -47.979 h 28.355 v 10.403 h -15.589 v 9.156 h 14.374 v 10.403 h -14.374 z"
   id="path12" />
	</g><polygon
     style="fill:#d1d3d3"
     points="219.821,0 219.821,50.525 270.346,50.525 "
     id="polygon16" /><g
     id="g1308"
     transform="matrix(0.2413952,0,0,0.2413952,147.22018,180.45255)"
     style="fill:#4d4d4d">
		<g
   id="g1306"
   style="fill:#4d4d4d">
			<path
   d="m 511.983,342.154 -0.026,-119.287 c 0,-20.139 -16.427,-42.667 -38.409,-42.667 -8.081,0 -15.317,2.935 -21.265,7.62 l 0.009,-7.62 c 0,-20.19 -16.427,-42.769 -38.409,-42.769 -8.055,0 -15.369,3.038 -21.393,7.868 -0.41,-19.942 -16.7,-41.899 -38.409,-41.899 -8.098,0 -15.334,2.935 -21.282,7.62 V 43.667 C 332.8,23.528 316.357,1 294.349,1 272.401,1 256,23.528 256,43.667 v 180.804 c -8.03,-16.341 -18.048,-31.667 -28.151,-41.771 -13.833,-13.815 -41.088,-14.797 -56.098,-2.022 -4.873,4.156 -19.26,19.84 0.478,47.181 18.313,25.378 32.521,82.364 32.521,114.475 0,68.181 44.39,98.978 59.785,107.605 v 54.528 c 0,4.719 3.823,8.533 8.533,8.533 h 204.8 c 4.71,0 8.525,-3.814 8.533,-8.525 l 0.06,-57.037 c 25.659,-34.355 25.65,-38.408 25.522,-105.284 z M 358.4,419.133 H 384 c 4.71,0 8.533,3.814 8.533,8.533 0,4.719 -3.823,8.533 -8.533,8.533 h -25.6 c -4.71,0 -8.533,-3.814 -8.533,-8.533 0,-4.718 3.823,-8.533 8.533,-8.533 z m 34.134,51.2 h -42.667 c -4.71,0 -8.533,-3.814 -8.533,-8.533 0,-4.719 3.823,-8.533 8.533,-8.533 h 42.667 c 4.71,0 8.533,3.814 8.533,8.533 0,4.719 -3.823,8.533 -8.533,8.533 z"
   id="path1302"
   style="fill:#4d4d4d" />
			
		</g>
	</g><g
     id="g1672"
     transform="matrix(1.0859823,0,0,1.0859823,-23.285247,-13.674614)"
     style="fill:#ffffff"><path
       d="m 221.83372,175.19963 c 1.61598,0 2.69319,-1.07722 2.69319,-2.69319 v -10.7734 c 0,-1.61598 -1.07721,-2.69319 -2.69319,-2.69319 -1.61598,0 -2.69319,1.07721 -2.69319,2.69319 v 10.77308 c 0,1.61629 1.07721,2.69351 2.69319,2.69351 z"
       id="path1439"
       style="fill:#ffffff;stroke-width:0.315621" /><path
       d="m 237.9935,188.66622 c 0,1.61598 1.07722,2.69319 2.6932,2.69319 h 10.77308 c 1.61598,0 2.69319,-1.07721 2.69319,-2.69319 0,-1.61598 -1.07721,-2.69319 -2.69319,-2.69319 H 240.6867 c -1.61598,-3.2e-4 -2.6932,1.07721 -2.6932,2.69319 z"
       id="path1441"
       style="fill:#ffffff;stroke-width:0.315621" /><path
       d="m 193.51416,191.35941 h 10.77308 c 1.61598,0 2.69319,-1.07721 2.69319,-2.69319 0,-1.61598 -1.07721,-2.69319 -2.69319,-2.69319 h -10.77308 c -1.61598,0 -2.69319,1.07721 -2.69319,2.69319 0,1.61598 1.07721,2.69319 2.69319,2.69319 z"
       id="path1443"
       style="fill:#ffffff;stroke-width:0.315621" /><path
       d="m 235.30031,180.58633 c 0.80799,0 1.34676,-0.26923 1.88521,-0.80799 l 8.07989,-8.07989 c 1.07721,-1.07722 1.07721,-2.69319 0,-3.77072 -1.07722,-1.07753 -2.6932,-1.07722 -3.77072,0 l -8.0799,8.07989 c -1.07721,1.07721 -1.07721,2.69319 0,3.77072 0.53877,0.53845 1.07753,0.80799 1.88552,0.80799 z"
       id="path1445"
       style="fill:#ffffff;stroke-width:0.315621" /><path
       d="m 205.78874,179.77834 c 0.53876,0.53876 1.07721,0.80799 1.8852,0.80799 0.80799,0 1.34675,-0.26923 1.8852,-0.80799 1.07722,-1.07722 1.07722,-2.69319 0,-3.77072 l -8.07989,-8.07989 c -1.07721,-1.07722 -2.69319,-1.07722 -3.77072,0 -1.07753,1.07721 -1.07721,2.69319 0,3.77072 z"
       id="path1447"
       style="fill:#ffffff;stroke-width:0.315621" /></g></g><g
   id="g1459"
   transform="translate(-87.997122,-416)">
</g><g
   id="g1461"
   transform="translate(-87.997122,-416)">
</g><g
   id="g1463"
   transform="translate(-87.997122,-416)">
</g><g
   id="g1465"
   transform="translate(-87.997122,-416)">
</g><g
   id="g1467"
   transform="translate(-87.997122,-416)">
</g><g
   id="g1469"
   transform="translate(-87.997122,-416)">
</g><g
   id="g1471"
   transform="translate(-87.997122,-416)">
</g><g
   id="g1473"
   transform="translate(-87.997122,-416)">
</g><g
   id="g1475"
   transform="translate(-87.997122,-416)">
</g><g
   id="g1477"
   transform="translate(-87.997122,-416)">
</g><g
   id="g1479"
   transform="translate(-87.997122,-416)">
</g><g
   id="g1481"
   transform="translate(-87.997122,-416)">
</g><g
   id="g1483"
   transform="translate(-87.997122,-416)">
</g><g
   id="g1485"
   transform="translate(-87.997122,-416)">
</g><g
   id="g1487"
   transform="translate(-87.997122,-416)">
</g></svg>
