<?xml version="1.0" encoding="UTF-8" standalone="no"?>
<svg
   xmlns:dc="http://purl.org/dc/elements/1.1/"
   xmlns:cc="http://creativecommons.org/ns#"
   xmlns:rdf="http://www.w3.org/1999/02/22-rdf-syntax-ns#"
   xmlns:svg="http://www.w3.org/2000/svg"
   xmlns="http://www.w3.org/2000/svg"
   xmlns:sodipodi="http://sodipodi.sourceforge.net/DTD/sodipodi-0.dtd"
   xmlns:inkscape="http://www.inkscape.org/namespaces/inkscape"
   viewBox="0 0 16 16"
   version="1.1"
   id="svg14"
   sodipodi:docname="img_regular.svg"
   inkscape:version="1.0.1 (3bc2e813f5, 2020-09-07)">
  <metadata
     id="metadata20">
    <rdf:RDF>
      <cc:Work
         rdf:about="">
        <dc:format>image/svg+xml</dc:format>
        <dc:type
           rdf:resource="http://purl.org/dc/dcmitype/StillImage" />
      </cc:Work>
    </rdf:RDF>
  </metadata>
  <defs
     id="defs18" />
  <sodipodi:namedview
     pagecolor="#ffffff"
     bordercolor="#666666"
     borderopacity="1"
     objecttolerance="10"
     gridtolerance="10"
     guidetolerance="10"
     inkscape:pageopacity="0"
     inkscape:pageshadow="2"
     inkscape:window-width="1360"
     inkscape:window-height="716"
     id="namedview16"
     showgrid="false"
     inkscape:zoom="14.75"
     inkscape:cx="-0.542069"
     inkscape:cy="2.5762712"
     inkscape:window-x="0"
     inkscape:window-y="31"
     inkscape:window-maximized="1"
     inkscape:current-layer="svg14"
     inkscape:document-rotation="0" />
  <path
     d="m 2.668 1 c -0.344 0 -0.668 0.339 -0.668 0.697 l 0 12.605 c 0 0.338 0.344 0.697 0.668 0.697 l 10.664 0 c 0.324 0 0.668 -0.359 0.668 -0.697 l 0 -9.303 -4 -4 m -7 1 7 0 0 2.383 c 0 0.299 0.337 0.733 0.613 0.617 l 2.387 0 0 9 -10 0"
     style="fill:#bfbfbf;fill-opacity:1;opacity:0.6"
     id="path2" />
  <path
     inkscape:connector-curvature="0"
     d="m 4.1913171,6.3653382 c -0.2996685,0 -0.5409178,0.1939177 -0.5409178,0.4347933 v 6.0871075 c 0,0.240877 0.2412493,0.434795 0.5409178,0.434795 h 7.5728489 c 0.299669,0 0.540919,-0.193918 0.540919,-0.434795 V 6.8001315 c 0,-0.2408756 -0.24125,-0.4347933 -0.540919,-0.4347933 z M 4.7322349,7.234925 H 11.22325 v 3.478348 L 9.3300357,8.9740992 7.9777421,10.278479 6.3549893,8.5393058 4.7322349,9.8436857 Z"
     style="opacity:0.75;fill:#bfbfbf;fill-opacity:1;stroke:none;stroke-width:0.48496142"
     id="path2-3" />
  <path
     style="opacity:0.15;fill:#bfbfbf;fill-opacity:1;stroke-width:0.0677966"
     d="M 10.220481,9.7403684 9.3370162,8.9237779 8.6523897,9.5654996 7.9677631,10.207222 7.446714,9.6532765 C 7.160137,9.3486069 6.809949,8.9696706 6.6685184,8.8111962 6.5270878,8.6527215 6.3850903,8.5230606 6.3529684,8.5230606 c -0.032122,0 -0.3970122,0.2745761 -0.8108673,0.6101695 -0.4138551,0.3355932 -0.7653794,0.6101695 -0.7811652,0.6101695 -0.015786,0 -0.028701,-0.5644069 -0.028701,-1.2542373 V 7.234925 h 3.2203389 3.2203382 v 1.6610169 c 0,0.9135592 -0.01552,1.6610171 -0.03448,1.6610171 -0.01897,0 -0.432043,-0.367466 -0.917948,-0.8165907 z"
     id="path818"
     inkscape:connector-curvature="0" />
  <path
     style="opacity:0.15;fill:#bfbfbf;fill-opacity:1;stroke-width:0.0677966"
     d="M 3.0847458,7.9651017 V 1.999 H 6.5423729 10 v 1.1886182 c 0,1.265239 0.05957,1.5771003 0.328786,1.721179 0.08395,0.044928 0.62358,0.073254 1.395571,0.073254 h 1.258694 V 9.4566271 13.931204 H 8.0338983 3.0847458 Z m 9.1585592,5.1619813 c 0.123453,-0.152489 0.129576,-0.310285 0.129576,-3.3389833 0,-3.6010934 0.03237,-3.3977754 -0.554435,-3.4828006 C 11.657284,6.2819473 9.8277573,6.2721211 7.7528312,6.283463 4.1539407,6.3031352 3.9736701,6.3100313 3.837577,6.4332365 3.6963523,6.5610872 3.6949153,6.5950123 3.6949153,9.8011973 v 3.2388087 l 0.1806044,0.142064 c 0.1793668,0.14109 0.2082125,0.141936 4.2094068,0.123565 l 4.0288025,-0.0185 z"
     id="path816"
     inkscape:connector-curvature="0" />
</svg>
