<?xml version="1.0" encoding="UTF-8" standalone="no"?>
<!DOCTYPE svg PUBLIC "-//W3C//DTD SVG 1.1//EN" "http://www.w3.org/Graphics/SVG/1.1/DTD/svg11.dtd">
<!-- Generated by Microsoft Visio, SVG Export Iso_Connection.svg Page-1 -->
<svg xmlns="http://www.w3.org/2000/svg" xmlns:xlink="http://www.w3.org/1999/xlink" xmlns:ev="http://www.w3.org/2001/xml-events"
		width="7.1049in" height="1.96409in" viewBox="0 0 511.553 141.414" xml:space="preserve" color-interpolation-filters="sRGB"
		class="st15">
	<style type="text/css">
	<![CDATA[
		.st1 {fill:#eaeff5;stroke:none;stroke-linecap:round;stroke-linejoin:round;stroke-width:0.75}
		.st2 {fill:#595959;font-family:Calibri;font-size:1.00001em}
		.st3 {fill:#8db1e2;stroke:#8db1e2;stroke-linecap:round;stroke-linejoin:round;stroke-width:0.75}
		.st4 {fill:#ffffff;font-family:Calibri;font-size:1.00001em;font-weight:bold}
		.st5 {font-size:1em}
		.st6 {marker-end:url(#mrkr13-16);marker-start:url(#mrkr13-14);stroke:#8db1e2;stroke-linecap:round;stroke-linejoin:round;stroke-width:1.5}
		.st7 {fill:#8db1e2;fill-opacity:1;stroke:#8db1e2;stroke-opacity:1;stroke-width:0.37313432835821}
		.st8 {fill:#8db1e2;stroke:#c6d8f0;stroke-linecap:round;stroke-linejoin:round;stroke-width:0.75}
		.st9 {fill:#8db1e2;stroke:#ffffff;stroke-linecap:round;stroke-linejoin:round;stroke-width:0.75}
		.st10 {fill:#ffffff}
		.st11 {fill:#c6d8f0;stroke:#c6d8f0;stroke-linecap:round;stroke-linejoin:round;stroke-width:0.75}
		.st12 {fill:none;stroke:none;stroke-linecap:round;stroke-linejoin:round;stroke-width:0.75}
		.st13 {fill:#000000;font-family:Calibri;font-size:1.00001em}
		.st14 {marker-end:url(#mrkr13-16);marker-start:url(#mrkr13-14);stroke:#8db1e2;stroke-dasharray:1.5,3;stroke-linecap:round;stroke-linejoin:round;stroke-width:1.5}
		.st15 {fill:none;fill-rule:evenodd;font-size:12px;overflow:visible;stroke-linecap:square;stroke-miterlimit:3}
	]]>
	</style>

	<defs id="Markers">
		<g id="lend13">
			<path d="M 3 1 L 0 0 L 3 -1 L 3 1 " style="stroke:none"/>
		</g>
		<marker id="mrkr13-14" class="st7" refX="7.8" orient="auto" markerUnits="strokeWidth" overflow="visible">
			<use xlink:href="#lend13" transform="scale(2.68) "/>
		</marker>
		<marker id="mrkr13-16" class="st7" refX="-8.04" orient="auto" markerUnits="strokeWidth" overflow="visible">
			<use xlink:href="#lend13" transform="scale(-2.68,-2.68) "/>
		</marker>
	</defs>
	<g>
		<title>Page-1</title>
		<g id="shape30-1" transform="translate(223.887,-23.8268)">
			<title>Sheet.30</title>
			<desc>Galvanically Isolated</desc>
			<rect x="0" y="42.2018" width="269.291" height="99.2126" class="st1"/>
			<text x="4" y="57" class="st2">Galvanically Isolated</text>		</g>
		<g id="shape3-4" transform="translate(177.469,-52.1732)">
			<title>Sheet.3</title>
			<desc>C2 SPI Isolator</desc>
			<rect x="0" y="98.8947" width="85.0394" height="42.5197" class="st3"/>
			<text x="36.3" y="116.55" class="st4">C2 <tspan x="14.44" dy="1.2em" class="st5">SPI Isolator</tspan></text>		</g>
		<g id="shape14-8" transform="translate(90.3601,-72.3141)">
			<title>Sheet.14</title>
			<path d="M11.7 141.41 L12.06 141.41 L75.05 141.41" class="st6"/>
		</g>
		<g id="group16-17" transform="translate(18.375,-38)">
			<title>PC</title>
			<g id="shape17-18" transform="translate(0,-4.72617)">
				<title>Sheet.17</title>
				<path d="M48.01 124.01 L48.01 129.99 L51.62 129.99 L55.04 134.28 L70.87 134.28 L70.87 80 L48.01 80 L48.01 87.79 L57.81
							 87.79 L57.81 124.01 L48.01 124.01 ZM57.81 87.79 L3.53 87.79 L3.53 124.01 L57.81 124.01 L57.81 87.79
							 ZM60.73 141.41 L51.62 129.99 L9.11 129.99 L0 141.41 L60.73 141.41 ZM35.14 124.01 L25.59 124.01 L25.59
							 129.99 L35.14 129.99 L35.14 124.01 Z" class="st8"/>
			</g>
			<g id="shape18-20" transform="translate(7.05282,-25.393)">
				<title>Sheet.18</title>
				<path d="M47.32 112.05 L0 112.05 L0 141.41 L47.32 141.41 L47.32 112.05 Z" class="st9"/>
			</g>
			<g id="shape19-22" transform="translate(8.26528,-7.08364)">
				<title>Sheet.19</title>
				<path d="M53.45 88.43 L58.34 88.43 L58.34 86.53 L53.45 86.53 L53.45 88.43 ZM53.45 91.83 L58.34 91.83 L58.34 89.93
							 L53.45 89.93 L53.45 91.83 ZM41.47 136.99 L38.77 136.99 L40.28 138.66 L43.19 138.66 L41.47 136.99 ZM38.42
							 134.01 L36.1 134.01 L37.72 135.81 L40.27 135.81 L38.42 134.01 ZM37.32 136.99 L34.62 136.99 L35.81 138.66
							 L38.72 138.66 L37.32 136.99 ZM34.84 134.01 L32.52 134.01 L33.79 135.81 L36.35 135.81 L34.84 134.01 ZM33.17
							 136.99 L30.47 136.99 L31.33 138.66 L34.24 138.66 L33.17 136.99 ZM31.27 134.01 L28.95 134.01 L29.88 135.85
							 L32.44 135.85 L31.27 134.01 ZM29.02 136.99 L26.32 136.99 L26.86 138.66 L29.77 138.66 L29.02 136.99 ZM27.75
							 134.13 L25.4 134.13 L25.95 135.85 L28.51 135.85 L27.75 134.13 ZM24.87 136.99 L22.17 136.99 L22.38 138.66
							 L25.29 138.66 L24.87 136.99 ZM24.18 134.27 L21.82 134.27 L22.04 135.95 L24.61 135.95 L24.18 134.27 ZM20.55
							 134.27 L18.19 134.27 L18.08 135.95 L20.65 135.95 L20.55 134.27 ZM20.71 136.99 L18.01 136.99 L17.9 138.66
							 L20.81 138.66 L20.71 136.99 ZM16.93 134.27 L14.57 134.27 L14.13 135.95 L16.7 135.95 L16.93 134.27 ZM16.56
							 136.99 L13.86 136.99 L13.43 138.66 L16.34 138.66 L16.56 136.99 ZM31.37 139.74 L12.32 139.74 L11.83 141.41
							 L32.19 141.41 L31.37 139.74 ZM13.3 134.27 L10.94 134.27 L10.18 135.95 L12.75 135.95 L13.3 134.27 ZM12.41
							 136.99 L9.71 136.99 L8.95 138.66 L11.86 138.66 L12.41 136.99 ZM9.67 134.27 L7.31 134.27 L6.22 135.95
							 L8.79 135.95 L9.67 134.27 ZM8.26 136.99 L5.56 136.99 L4.48 138.66 L7.39 138.66 L8.26 136.99 ZM6.04 134.27
							 L3.68 134.27 L2.27 135.95 L4.84 135.95 L6.04 134.27 ZM4.11 136.99 L1.41 136.99 L0 138.66 L2.91 138.66
							 L4.11 136.99 Z" class="st10"/>
			</g>
		</g>
		<g id="group26-25" transform="translate(350.737,-38)">
			<title>Sheet.26</title>
			<g id="shape2-26">
				<title>Sheet.2</title>
				<rect x="0" y="70.5482" width="128.268" height="70.8661" class="st11"/>
			</g>
			<g id="shape4-28" transform="translate(4.25197,-5.66929)">
				<title>Sheet.4</title>
				<desc>C1b Controller Module</desc>
				<rect x="0" y="81.8868" width="66.6142" height="59.5276" class="st3"/>
				<text x="23.87" y="100.85" class="st4">C1b <tspan x="8.15" dy="1.2em" class="st5">Controller </tspan><tspan
							x="13.9" dy="1.2em" class="st5">Module</tspan></text>			</g>
			<g id="shape12-33" transform="translate(71.5748,-56.6929)">
				<title>Sheet.12</title>
				<desc>SPI Rack</desc>
				<rect x="0" y="127.241" width="57.4016" height="14.1732" class="st12"/>
				<text x="8.58" y="137.93" class="st13">SPI Rack</text>			</g>
		</g>
		<g id="shape27-36" transform="translate(89.2411,-73.4331)">
			<title>Sheet.27</title>
			<desc>USB</desc>
			<rect x="0" y="127.241" width="87.874" height="14.1732" class="st12"/>
			<text x="34.07" y="137.93" class="st13">USB</text>		</g>
		<g id="shape28-39" transform="translate(262.438,-73.4331)">
			<title>Sheet.28</title>
			<desc>Displayport</desc>
			<rect x="0" y="127.241" width="91.8425" height="14.1732" class="st12"/>
			<text x="17.97" y="137.93" class="st13">Displayport</text>		</g>
		<g id="shape25-42" transform="translate(263.628,-72.3141)">
			<title>Sheet.25</title>
			<path d="M11.7 141.41 L12.06 141.41 L79.07 141.41" class="st14"/>
		</g>
	</g>
</svg>
